<?xml version="1.0" encoding="UTF-8"?>
<svg id="Layer_1" data-name="Layer 1" xmlns="http://www.w3.org/2000/svg" viewBox="0 0 471.1 448.27">
  <g>
    <path d="M205.31,23.49c56.89-1.51,122.35.36,178.56,8.83,53.47,8.06,62.16,50.91,64.63,98.18,2.51,48.07,1.94,126.61-57.63,138.08-36.8,7.09-82.21,7.92-119.9,9.08-58.67,1.81-134.12,1.83-191.69-9.21-47.13-9.05-54.93-58.56-56.81-99-2.2-47.17-1.44-124.39,56.81-136.01,37.04-7.38,87.82-8.94,126.03-9.95ZM363.51,228.79c19.66-2.43,31.11.49,36.87-21.58,7.97-30.51,7.75-79.49.66-110.19-2.28-9.85-6-19.33-17.11-21.85-18.9-4.29-50.8-5.72-70.94-7.05-54.69-3.6-113.29-3.25-167.98,1-16.49,1.28-42.54,2.56-57.94,6.05-17.04,3.86-18.79,28.09-20.45,42.47-3.11,26.84-2.74,60.89,3.34,87.24,5.42,23.45,16.04,21.88,37.53,23.92v-22.46c0-25.66,32.79-55.48,58.46-55.43,45.08,2.45,93.38-3.14,138.08,0,27.34,1.91,59.46,27.66,59.46,56.43v21.46h.02ZM320.51,232.78v-23.45c0-5.79-10.3-15.33-16.59-15.38-43.57,2.31-90.82-3.37-133.95-.13-6.71.5-12.52,2.88-16.3,8.68-.57.88-3.16,6.39-3.16,6.83v23.45c56.57,4.21,113.51,4.13,170,0h0Z"/>
    <path d="M125.28,87.33c6.94-1.02,27.89-1.07,33.93,1.55,16.66,7.21,16.07,32.93-.97,39.33-7.35,2.76-30.1,2.76-37.44,0-19.5-7.32-16.75-37.76,4.48-40.88Z"/>
  </g>
  <path d="M91.58,396.72c-8.06,0-15.65-4.91-18.69-12.89-3.93-10.32,1.25-21.88,11.57-25.81,25.86-9.85,27.86-38.11,27.86-46.53,0-11.05,8.95-20,20-20s20,8.95,20,20c0,30.69-14.09,68.85-53.63,83.91-2.34.89-4.75,1.32-7.12,1.32h.01Z"/>
  <path d="M380.29,396.72c-2.37,0-4.77-.42-7.12-1.32-39.54-15.06-53.62-53.22-53.62-83.91,0-11.05,8.95-20,20-20s20,8.95,20,20c0,8.42,2.01,36.68,27.87,46.53,10.32,3.93,15.5,15.49,11.57,25.81-3.04,7.98-10.63,12.89-18.69,12.89h-.01Z"/>
  <path d="M182.62,425.24c-2.6,0-5.25-.51-7.8-1.59-10.17-4.31-14.92-16.05-10.61-26.22,8.73-20.6,17.57-56.74,17.57-85.94,0-11.05,8.95-20,20-20s20,8.95,20,20c0,36.34-10.42,77.19-20.74,101.54-3.23,7.62-10.64,12.2-18.42,12.2h0Z"/>
  <path d="M289.25,425.24c-7.79,0-15.19-4.58-18.42-12.2-10.32-24.36-20.74-65.21-20.74-101.54,0-11.05,8.95-20,20-20s20,8.95,20,20c0,29.2,8.84,65.34,17.57,85.94,4.31,10.17-.44,21.91-10.61,26.22-2.55,1.08-5.19,1.59-7.79,1.59h-.01Z"/>
</svg>