<?xml version="1.0" encoding="UTF-8"?>
<svg id="Layer_1" data-name="Layer 1" xmlns="http://www.w3.org/2000/svg" viewBox="0 0 471.1 448.27">
  <path d="M68.41,362.75c7.62-16.6,19.1-30.66,36.52-37.48,34.89-13.66,71.3,3.35,84.64,37.53l114.18-.21c17.93-48.25,83.47-57.53,112.97-14.15,22.57,33.18,9.18,79.43-27.85,94.78-34.77,14.41-72.29-3.23-85.64-37.5l-113.71-.03c-16.26,46.36-78.05,57.75-109.58,19.53-4.89-5.92-7.91-12.75-11.66-19.34-27.63,2.22-59.52-1.66-66.13-33.87-3.38-16.46-2.64-72.83,1.26-89.27,4.92-20.8,23.97-40.14,44.73-45.27,8.33-2.06,17.06-2.38,25.62-2.88,8.1-15.54,15.02-32.67,23.64-47.86,11.79-20.77,28.37-34.76,53.15-36.85,25.07-2.11,66.65-1.9,91.91-.17,13.84.95,26.59,6.08,37.47,14.53l70.01,69.99c22.32,2.14,46.94-2.4,68.51,4.49,33.95,10.83,54.64,44.32,52.5,79.57-.91,15.03-11.81,26.96-27.58,22.51-21.39-6.04-12.29-26.55-16.97-41.02-11.22-34.71-60.36-17.79-87.53-22.47-12.18-2.1-17.93-14.46-27.47-20.53h-116.01c-19.06.43-31.15-20.98-18-36.05,1.69-1.93,9.94-6.97,12.03-6.97h25.5v-21h-65.5c-.4,0-6.14,3.33-7,4-10.5,8.18-28.21,54.4-36.99,69.01-13.48,22.44-36.61,4.71-52.45,15.55-2.86,1.95-9.06,9.68-9.06,12.94v68.5h24.5-.01ZM150.69,384.42c0-11.85-9.61-21.47-21.47-21.47s-21.47,9.61-21.47,21.47,9.61,21.47,21.47,21.47,21.47-9.61,21.47-21.47ZM385.3,384.37c0-11.81-9.58-21.39-21.39-21.39s-21.39,9.58-21.39,21.39,9.58,21.39,21.39,21.39,21.39-9.58,21.39-21.39Z"/>
  <path d="M363.91,106.75v25.5c0,2.09-5.04,10.34-6.97,12.03-15.02,13.12-36.46,1.14-36.07-18,1.96-33.23-2.49-69.18,0-102.08.8-10.63,5.82-21.75,17.63-23.37,9.33-1.28,34.06-.96,43.63.19,37.89,4.55,58.14,49.59,37.19,81.63-6.64,10.15-24.47,24.09-36.91,24.09h-18.5ZM363.91,64.75c9.09.68,21.45.63,21.08-11.51-.34-11.34-12.58-11.06-21.08-10.49v22Z"/>
</svg>