<?xml version="1.0" encoding="UTF-8"?>
<svg id="Layer_2" data-name="Layer 2" xmlns="http://www.w3.org/2000/svg" viewBox="0 0 39.99 26.5">
  <g id="Layer_1-2" data-name="Layer 1">
    <g>
      <path d="M39.33,24.39c-.25-.08-.48-.21-.67-.39-.75-.68-1.72-1.01-2.67-1.01s-1.92.33-2.67,1.01c-.35.32-.83.49-1.33.49h0c-.5,0-.98-.16-1.33-.48-.75-.68-1.72-1.01-2.67-1.01s-1.92.33-2.67,1.01c-.35.32-.83.49-1.33.49s-.98-.17-1.33-.49c-.75-.68-1.72-1.01-2.67-1.01s-1.92.33-2.67,1.01c-.35.32-.83.49-1.33.49s-.98-.17-1.33-.49c-.75-.68-1.72-1.01-2.67-1.01s-1.92.33-2.67,1.01c-.35.32-.82.49-1.32.49v-.02c-.5,0-.98-.17-1.33-.49-.75-.68-1.72-1.01-2.67-1.01s-1.92.33-2.67,1.01c-.19.17-.42.3-.67.39-.4.13-.66.52-.66.93,0,.67.65,1.17,1.29.96.5-.17.97-.43,1.38-.8.35-.32.83-.49,1.33-.49s.98.17,1.33.49c.75.68,1.72,1.01,2.66,1.01v.02c.95,0,1.92-.33,2.67-1.01.35-.32.83-.49,1.33-.49s.98.17,1.33.49c.75.68,1.72,1.01,2.67,1.01s1.92-.33,2.67-1.01c.35-.32.83-.49,1.33-.49s.98.17,1.33.49c.75.68,1.72,1.01,2.67,1.01s1.92-.33,2.67-1.01c.35-.32.83-.49,1.33-.49s.98.17,1.33.49c.75.68,1.72,1.01,2.67,1.01h0c.95,0,1.92-.34,2.67-1.02.35-.32.83-.49,1.33-.49s.98.17,1.33.49c.41.37.88.64,1.38.8.64.21,1.29-.29,1.29-.96,0-.42-.26-.8-.66-.93Z"/>
      <path d="M39.33,19.39c-.25-.08-.48-.21-.67-.39-.75-.68-1.72-1.01-2.67-1.01s-1.92.33-2.67,1.01c-.35.32-.83.49-1.33.49h0c-.5,0-.98-.16-1.33-.48-.75-.68-1.72-1.01-2.67-1.01s-1.92.33-2.67,1.01c-.35.32-.83.49-1.33.49s-.98-.17-1.33-.49c-.75-.68-1.72-1.01-2.67-1.01s-1.92.33-2.67,1.01c-.35.32-.83.49-1.33.49s-.98-.17-1.33-.49c-.75-.68-1.72-1.01-2.67-1.01s-1.92.33-2.67,1.01c-.35.32-.82.49-1.32.49v-.02c-.5,0-.98-.17-1.33-.49-.75-.68-1.72-1.01-2.67-1.01s-1.92.33-2.67,1.01c-.19.17-.42.3-.67.39-.4.13-.66.52-.66.93,0,.67.65,1.17,1.29.96.5-.17.97-.43,1.38-.8.35-.32.83-.49,1.33-.49s.98.17,1.33.49c.75.68,1.72,1.01,2.66,1.01v.02c.95,0,1.92-.33,2.67-1.01.35-.32.83-.49,1.33-.49s.98.17,1.33.49c.75.68,1.72,1.01,2.67,1.01s1.92-.33,2.67-1.01c.35-.32.83-.49,1.33-.49s.98.17,1.33.49c.75.68,1.72,1.01,2.67,1.01s1.92-.33,2.67-1.01c.35-.32.83-.49,1.33-.49s.98.17,1.33.49c.75.68,1.72,1.01,2.67,1.01h0c.95,0,1.92-.34,2.67-1.02.35-.32.83-.49,1.33-.49s.98.17,1.33.49c.41.37.88.64,1.38.8.64.21,1.29-.29,1.29-.96,0-.42-.26-.8-.66-.93Z"/>
      <path d="M1.29,16.27c.5-.17.97-.43,1.38-.8.35-.32.83-.49,1.33-.49s.98.17,1.33.49c.75.68,1.72,1.01,2.66,1.01v.02c.95,0,1.92-.33,2.67-1.01.35-.32.83-.49,1.33-.49s.98.17,1.33.49c.75.68,1.72,1.01,2.67,1.01s1.92-.33,2.67-1.01c.35-.32.83-.49,1.33-.49s.98.17,1.33.49c.75.68,1.72,1.01,2.67,1.01s1.92-.33,2.67-1.01c.35-.32.83-.49,1.33-.49s.98.17,1.33.49c.75.68,1.72,1.01,2.67,1.01h0c.95,0,1.92-.34,2.67-1.02.35-.32.83-.49,1.33-.49s.98.17,1.33.49c.41.37.88.64,1.38.8.64.21,1.29-.29,1.29-.96,0-.42-.26-.8-.66-.93-.25-.08-.48-.21-.67-.39-.75-.68-1.72-1.01-2.67-1.01s-1.92.33-2.67,1.01c-.35.32-.83.49-1.33.49h0c-.5,0-.98-.16-1.33-.48-.75-.68-1.72-1.01-2.67-1.01v-5h3c.55,0,1-.45,1-1s-.45-1-1-1h-3v-2c0-2.21-1.79-4-4-4-1.2,0-2.27.54-3,1.38-.73-.84-1.8-1.38-3-1.38-2.17,0-3.92,1.73-3.99,3.88,0,.04-.02.08-.02.12,0,.56.45,1.01,1.01,1.01s1.01-.45,1.01-1.01c0-1.1.9-2,2-2s2,.9,2,2v2h-11c-.55,0-1,.45-1,1s.45,1,1,1h11v5c-.95,0-1.92.33-2.67,1.01-.35.32-.83.49-1.33.49s-.98-.17-1.33-.49c-.75-.68-1.72-1.01-2.67-1.01s-1.92.33-2.67,1.01c-.35.32-.82.49-1.32.49v-.02c-.5,0-.98-.17-1.33-.49-.75-.68-1.72-1.01-2.67-1.01s-1.92.33-2.67,1.01c-.19.17-.42.3-.67.39-.4.13-.66.52-.66.93,0,.67.65,1.17,1.29.96ZM21.99,4c0-1.1.9-2,2-2s2,.9,2,2v2h-4v-2ZM25.99,8v2h-4v-2h4ZM21.99,12h4v1.53c-.24.13-.46.29-.67.48-.35.32-.83.49-1.33.49s-.98-.17-1.33-.49c-.21-.19-.44-.34-.67-.48v-1.53Z"/>
    </g>
  </g>
</svg>