<?xml version="1.0" encoding="UTF-8"?>
<svg id="Layer_1" data-name="Layer 1" xmlns="http://www.w3.org/2000/svg" viewBox="0 0 469.31 384.18">
  <path d="M217.46.43c64.64-3.4,129.4,13.38,184.12,47.29,15.46,9.58,58.74,41.2,65.11,56.89,10.39,25.6-11.68,50.66-38.47,43.47-10.71-2.87-23.86-18.51-33.09-25.91-87.25-70.02-216.18-74.16-307.79-9.84-11.37,7.98-34.79,32.08-44.71,35.29-27.41,8.86-51.09-17.35-39.7-43.7,5.43-12.57,38.22-38.07,50.41-46.59C101.07,23.98,159.04,3.51,217.46.43Z"/>
  <path d="M219.46,130.43c50.17-3.43,120.32,15.8,152.72,56.69,18.76,23.68-.63,56.15-30.75,51.75-11.67-1.7-21.05-13.74-30.45-20.55-45.69-33.1-106.19-33.43-152.04-.41-8.03,5.79-17.47,16.84-26.31,19.69-31.05,10.04-55.77-25.13-35.48-50.48,25.62-32.02,82.21-53.95,122.31-56.69h0Z"/>
  <circle cx="234.66" cy="320.13" r="64.05"/>
</svg>