<?xml version="1.0" encoding="UTF-8"?>
<svg id="Layer_1" data-name="Layer 1" xmlns="http://www.w3.org/2000/svg" viewBox="0 0 83.72 15.97">
  <path d="M9.16.6c-.3-.8-1.4-.8-1.7,0l-1.8,4.4-4.8.4c-.8,0-1.2,1.1-.5,1.7l3.6,3.1-1.1,4.6c-.2.8.7,1.5,1.4,1l4.1-2.5,4.1,2.5c.7.4,1.6-.2,1.4-1l-1.1-4.6,3.6-3.1c.6-.5.3-1.6-.5-1.7l-4.8-.4-1.8-4.4h-.1Z" fill="orange" fill-rule="evenodd"/>
  <path d="M25.92.6c-.3-.8-1.4-.8-1.7,0l-1.8,4.4-4.8.4c-.8,0-1.2,1.1-.5,1.7l3.6,3.1-1.1,4.6c-.2.8.7,1.5,1.4,1l4.1-2.5,4.1,2.5c.7.4,1.6-.2,1.4-1l-1.1-4.6,3.6-3.1c.6-.5.3-1.6-.5-1.7l-4.8-.4-1.8-4.4h-.1Z" fill="#c4c4c4" fill-rule="evenodd"/>
  <path d="M42.68.6c-.3-.8-1.4-.8-1.7,0l-1.8,4.4-4.8.4c-.8,0-1.2,1.1-.5,1.7l3.6,3.1-1.1,4.6c-.2.8.7,1.5,1.4,1l4.1-2.5,4.1,2.5c.7.4,1.6-.2,1.4-1l-1.1-4.6,3.6-3.1c.6-.5.3-1.6-.5-1.7l-4.8-.4-1.8-4.4h-.1Z" fill="#c4c4c4" fill-rule="evenodd"/>
  <path d="M59.44.6c-.3-.8-1.4-.8-1.7,0l-1.8,4.4-4.8.4c-.8,0-1.2,1.1-.5,1.7l3.6,3.1-1.1,4.6c-.2.8.7,1.5,1.4,1l4.1-2.5,4.1,2.5c.7.4,1.6-.2,1.4-1l-1.1-4.6,3.6-3.1c.6-.5.3-1.6-.5-1.7l-4.8-.4-1.8-4.4h-.1Z" fill="#c4c4c4" fill-rule="evenodd"/>
  <path d="M76.2.6c-.3-.8-1.4-.8-1.7,0l-1.8,4.4-4.8.4c-.8,0-1.2,1.1-.5,1.7l3.6,3.1-1.1,4.6c-.2.8.7,1.5,1.4,1l4.1-2.5,4.1,2.5c.7.4,1.6-.2,1.4-1l-1.1-4.6,3.6-3.1c.6-.5.3-1.6-.5-1.7l-4.8-.4-1.8-4.4h-.1Z" fill="#c4c4c4" fill-rule="evenodd"/>
</svg>