<?xml version="1.0" encoding="UTF-8"?>
<svg id="Layer_1" xmlns="http://www.w3.org/2000/svg" version="1.1" viewBox="0 0 403 403.3">
  <!-- Generator: Adobe Illustrator 29.3.1, SVG Export Plug-In . SVG Version: 2.1.0 Build 151)  -->
  <defs>
    <style>
      .st0 {
        fill: #ddd;
      }
    </style>
  </defs>
  <path class="st0" d="M403.2,189.1v25.2c-1.2,4.5-1.1,9.7-1.7,14.4-11.5,86.8-80.4,157.7-166.9,171.9l-20.6,2.6c-8.3-.4-16.9.5-25.2,0C4.8,392.4-69,156.3,77.7,42.3c127.6-99.2,316.1-13.2,325.5,146.7h0ZM268.1,147.6c0-36.8-29.9-66.7-66.8-66.7s-66.8,29.9-66.8,66.7,29.9,66.7,66.8,66.7,66.8-29.9,66.8-66.7ZM166,232.3c-36.2,3.2-67.7,29.9-81,66.7-.3,2.8,19.3,19.1,22.6,21.6,65.3,49.8,154.1,40.9,210.1-20.6-12.3-37.9-45.9-65.2-82.4-68-19.5-1.4-49.8-1.4-69.3.2h0Z"/>
</svg>