<?xml version="1.0" encoding="UTF-8"?>
<svg id="Layer_2" data-name="Layer 2" xmlns="http://www.w3.org/2000/svg" viewBox="0 0 30.14 23.18">
  <g id="Layer_1-2" data-name="Layer 1">
    <g>
      <path d="M19.1,19.15c0-2.23-1.8-4.03-4.03-4.03s-4.03,1.8-4.03,4.03,1.8,4.03,4.03,4.03,4.03-1.8,4.03-4.03ZM13.06,19.15c0-1.11.9-2.02,2.02-2.02s2.02.9,2.02,2.02-.9,2.01-2.02,2.01-2.02-.9-2.02-2.01Z"/>
      <path d="M22.64,15.61c.34-.34.39-.86.13-1.27-1.6-2.56-4.45-4.27-7.7-4.27s-6.09,1.7-7.69,4.27c-.25.41-.21.93.13,1.27h0c.45.45,1.22.38,1.55-.16,1.24-2.02,3.47-3.36,6.01-3.36s4.77,1.35,6.01,3.36c.33.54,1.1.61,1.55.16h0Z"/>
      <path d="M26.26,11.99c.35-.35.41-.9.11-1.3-2.57-3.43-6.68-5.66-11.3-5.66S6.35,7.26,3.78,10.7c-.3.39-.24.95.11,1.3h0c.43.43,1.14.39,1.51-.1,2.21-2.94,5.72-4.84,9.67-4.84s7.47,1.9,9.67,4.84c.37.49,1.08.53,1.51.1h0Z"/>
      <path d="M29.84,8.41c.36-.36.41-.94.08-1.34C26.42,2.76,21.07,0,15.07,0S3.73,2.76.22,7.07c-.32.4-.28.98.08,1.34h0c.42.41,1.1.39,1.48-.06,3.14-3.86,7.93-6.33,13.3-6.33s10.16,2.47,13.3,6.33c.37.46,1.06.48,1.48.06h0Z"/>
    </g>
  </g>
</svg>