<?xml version="1.0" encoding="UTF-8"?>
<svg id="Layer_2" data-name="Layer 2" xmlns="http://www.w3.org/2000/svg" viewBox="0 0 27.04 23.18">
  <g id="Layer_1-2" data-name="Layer 1">
    <g>
      <path d="M25.22,8.8l-.17-.45-.24-.63h1.26c.53,0,.97-.43.97-.97s-.43-.97-.97-.97h-1.93v.15l-1.76-4.69h0c-.28-.75-1-1.25-1.81-1.25H6.46c-.81,0-1.53.5-1.81,1.25h0s-1.76,4.69-1.76,4.69v-.15H.97c-.53,0-.97.43-.97.97s.43.97.97.97h1.26l-.24.63-.17.45c-1.1.88-1.82,2.23-1.82,3.75v8.69c0,1.07.87,1.93,1.93,1.93h1.93c1.07,0,1.93-.87,1.93-1.93v-1.93h15.45v1.93c0,1.07.87,1.93,1.93,1.93h1.93c1.07,0,1.93-.87,1.93-1.93v-8.69c0-1.52-.72-2.87-1.82-3.75ZM5.6,1.61l.86.32h0s14.11,0,14.11,0h0s.86-.32.86-.32l.06-.02-.92.35,2.17,5.79H4.29L6.46,1.93l-.92-.35.06.02ZM1.93,21.25v-1.93h1.93v1.93h-1.93ZM23.18,21.25v-1.93h1.93v1.93h-1.93ZM25.11,17.38H1.93v-4.83c0-1.6,1.3-2.9,2.9-2.9h17.38c1.6,0,2.9,1.3,2.9,2.9v4.83Z"/>
      <circle cx="22.21" cy="13.52" r=".97"/>
      <circle cx="4.83" cy="13.52" r=".97"/>
      <path d="M18.35,12.55h-9.66c-.53,0-.97.43-.97.97s.43.97.97.97h9.66c.53,0,.97-.43.97-.97s-.43-.97-.97-.97Z"/>
    </g>
  </g>
</svg>