<?xml version="1.0" encoding="UTF-8"?>
<svg id="Layer_2" xmlns="http://www.w3.org/2000/svg" version="1.1" viewBox="0 0 142 60">
  <!-- Generator: Adobe Illustrator 29.3.1, SVG Export Plug-In . SVG Version: 2.1.0 Build 151)  -->
  <defs>
    <style>
      .st0 {
        fill: #e0143d;
      }
    </style>
  </defs>
  <g id="_8xs03W">
    <path class="st0" d="M46.2,32c2.8,5.8,6.4,11.3,1.9,17.1-4,5.3-10.7,4.8-15.7,1.1-1.2-.9-2.3-2-3.4-3.1-.3-.3-.8-.3-1.1,0-2.7,2.7-5.9,5.3-9.8,5.8-6.7.8-12.2-4.8-11.1-11.5.3-1.8,1.2-3.6,1.9-5.3,3-6.7,6.4-13.5,9.7-20.1,2.1-4.1,3.9-9.1,9.3-9.5,7-.5,9.1,6.8,11.5,11.5l6.8,13.9h0ZM30.5,44.6c.4.4,1.8,1.8,2.1,2,3.6,3.3,9.2,5.5,13,1.1,2.7-3.1,1.6-6.2.1-9.5-3.3-7.6-7.2-15.5-11.1-22.8-1.5-2.8-2.8-6.2-6.6-5.8-3.1.3-4.3,3.4-5.6,5.8-3.9,7.4-7.8,15.2-11.1,22.8-1.4,3.3-2.5,6.3,0,9.4,2.8,3.3,6.9,3.1,10.4,1,1.3-.8,3.6-2.9,4.6-4l1.5-1.7c.3-.4.9-.4,1.2,0l1.5,1.7h0Z"/>
  </g>
  <g>
    <path class="st0" d="M85.9,17.4v9.2l1.7-1.1c7.1-2.4,12.8,4.2,10.7,11.1-1.6,5-8.3,7.8-12.4,4,0,.4,0,1.4-.5,1.4h-3.7v-24.6s4.1,0,4.1,0ZM89.3,28.7c-1.3,0-2.7.8-3.4,1.9,0,1.8-.2,4,0,5.8.2,1.4,2.7,2.2,3.9,2.1,6.7-.2,6.2-10.2-.5-9.8Z"/>
    <path class="st0" d="M122.2,17.4v9.2l1.7-1.1c14.6-3.9,14.8,19.8.2,16.4l-1.9-1.2v1c-.2,0-.6.2-.6.2h-3.5v-24.6h4.1ZM125.6,28.8c-1.3,0-2.6.8-3.4,1.9.1,1.8-.2,4,0,5.8.2,1.4,2.7,2.2,3.9,2.1,6.7-.3,6.1-10.2-.5-9.8h0Z"/>
    <path class="st0" d="M115.7,42h-4v-9.6c0-.2-.1-1.1-.2-1.4-.5-2.6-3.5-2.9-5.5-1.7-.3.1-1,.7-1.1.9s-.2,1.9-.2,2.3c0,2,0,4.1,0,6s0,3.4,0,3.4h-3.9v-16.6h3.5c.4.1.3,1.2.4,1.2,2.6-2.4,7.5-2.1,9.8.6.6.7,1.3,2.5,1.3,3.4v11.4h0Z"/>
    <path class="st0" d="M78.9,42h-4v-9.6c0-.2-.1-1.1-.2-1.4-.5-2.6-3.5-2.9-5.5-1.7-.3.1-1,.7-1.1.9s-.2,1.9-.2,2.3c0,2,0,6,0,6v3.4h-4v-24.6h3.9s0,9.2,0,9.2c2.6-2.4,7.5-2.1,9.8.6.6.7,1.3,2.5,1.3,3.4v11.4h0Z"/>
  </g>
  <path class="st0" d="M31.7,42.1h0c.9-1,1.5-2.3,1.5-3.8,0-3-1.5-3.9-1.5-3.9,1.6,0,3.5-2,3.5-3.7h-4.7l2.1-.7v-9.1c0-1.1-.2-2-.6-2.7-.5-1-1.9-1.9-3.9-1.9s-2.1.4-2.1.4v.4c0,2.9-1.8,5-4.1,5.6,0,0,.4,1.2,1.8,1l2.8-.9.6-.2h.2c.6,0,1.1.4,1.1,1s-.1.6-.3.8c-1.1,1.3-4.1,3-4.1,6.2,0,5,5.7,5.3,5.7,9.1s-1.3,3-2.7,3-1.2-.2-1.3-.3h0c.7,0,1.3-.3,1.6-.8.3-.7,0-1.3,0-1.3,0-.1-.2-.4-.4-.6-.4-.3-.9-.4-1.4-.3-.7.2-1.2.9-1.3,1.5-.2,1.1.6,2.1,1.4,2.5,0,0,.9.5,2.5.4,1.2-.1,2.2-.7,2.2-.7M30.3,43.1h0c.8-.4,1.3-1,1.3-1M26.4,21.4c-.3,0-.5-.2-.5-.5s.2-.5.5-.5.5.2.5.5-.2.5-.5.5Z"/>
</svg>